<?xml version="1.0" encoding="UTF-8" ?>
<!DOCTYPE svg PUBLIC "-//W3C//DTD SVG 1.1//EN" "http://www.w3.org/Graphics/SVG/1.1/DTD/svg11.dtd">
<svg width="552pt" height="465pt" viewBox="0 0 552 465" version="1.1" xmlns="http://www.w3.org/2000/svg">
<path fill="#e61d3b" d=" M 0.00 0.00 L 170.76 0.00 C 170.77 30.33 170.75 60.66 170.77 90.99 C 162.18 91.01 153.59 90.99 145.00 91.00 C 145.00 113.08 145.00 135.15 145.00 157.23 C 176.41 157.24 207.82 157.25 239.23 157.22 C 239.25 135.15 239.24 113.08 239.23 91.00 C 230.66 91.00 222.08 91.00 213.51 91.00 C 213.49 60.67 213.50 30.33 213.50 0.00 L 384.39 0.00 C 384.64 30.33 384.44 60.67 384.50 91.00 C 375.25 91.00 366.01 91.00 356.77 91.00 C 356.76 113.08 356.75 135.15 356.77 157.22 C 401.00 157.24 445.23 157.24 489.46 157.22 C 489.55 187.56 489.49 217.90 489.49 248.23 C 480.26 248.25 471.03 248.25 461.81 248.23 C 461.70 289.50 461.82 330.77 461.75 372.04 C 461.87 372.63 462.13 373.80 462.25 374.38 C 471.32 374.70 480.41 374.38 489.49 374.51 C 489.52 404.67 489.50 434.84 489.50 465.00 L 318.60 465.00 C 318.36 434.84 318.56 404.67 318.51 374.51 C 327.09 374.44 335.68 374.58 344.26 374.44 C 344.21 368.96 344.25 363.48 344.23 358.00 C 313.49 358.00 282.74 358.00 252.00 358.00 C 252.01 363.52 251.95 369.03 252.06 374.55 C 260.67 374.52 269.28 374.35 277.88 374.64 C 277.61 404.75 277.84 434.88 277.77 465.00 L 106.76 465.00 C 106.68 434.88 106.90 404.76 106.65 374.65 C 115.83 374.29 125.03 374.61 134.22 374.49 C 134.20 350.39 134.33 326.29 134.16 302.19 C 117.12 302.32 100.08 302.18 83.04 302.27 C 81.53 302.40 80.05 302.02 78.95 300.93 C 62.48 286.76 46.05 272.54 29.53 258.42 C 28.57 257.50 27.23 256.60 27.51 255.05 C 27.52 200.39 27.43 145.73 27.56 91.07 C 18.37 90.92 9.19 91.04 0.00 91.00 L 0.00 0.00 Z" />
<path fill="#fffcfc" d=" M 170.76 0.00 L 213.50 0.00 C 213.50 30.33 213.49 60.67 213.51 91.00 C 222.08 91.00 230.66 91.00 239.23 91.00 C 239.24 113.08 239.25 135.15 239.23 157.22 C 207.82 157.25 176.41 157.24 145.00 157.23 C 145.00 135.15 145.00 113.08 145.00 91.00 C 153.59 90.99 162.18 91.01 170.77 90.99 C 170.75 60.66 170.77 30.33 170.76 0.00 Z" />
<path fill="#fffcfc" d=" M 384.39 0.00 L 552.00 0.00 L 552.00 465.00 L 551.76 465.00 C 551.76 458.33 551.77 451.67 551.76 445.00 C 548.86 444.99 545.97 445.00 543.08 444.99 C 541.71 448.12 540.63 451.41 538.71 454.28 C 537.49 451.16 536.27 448.05 534.93 444.99 C 531.95 445.00 528.97 445.00 526.00 445.00 C 526.00 451.67 526.00 458.33 526.00 465.00 L 517.24 465.00 C 517.24 459.93 517.25 454.87 517.23 449.80 C 519.15 449.79 521.06 449.76 522.99 449.76 C 522.99 448.16 522.99 446.58 523.00 445.00 C 517.33 445.00 511.66 445.00 505.99 445.00 C 505.99 446.58 506.01 448.17 506.03 449.76 C 507.94 449.76 509.86 449.79 511.78 449.81 C 511.74 454.87 511.76 459.93 511.76 465.00 L 489.50 465.00 C 489.50 434.84 489.52 404.67 489.49 374.51 C 480.41 374.38 471.32 374.70 462.25 374.38 C 462.13 373.80 461.87 372.63 461.75 372.04 C 461.82 330.77 461.70 289.50 461.81 248.23 C 471.03 248.25 480.26 248.25 489.49 248.23 C 489.49 217.90 489.55 187.56 489.46 157.22 C 445.23 157.24 401.00 157.24 356.77 157.22 C 356.75 135.15 356.76 113.08 356.77 91.00 C 366.01 91.00 375.25 91.00 384.50 91.00 C 384.44 60.67 384.64 30.33 384.39 0.00 Z" />
<path fill="#fffcfc" d=" M 12.77 12.78 C 61.18 12.74 109.59 12.77 158.00 12.77 C 158.00 34.51 158.00 56.26 158.00 78.00 C 149.40 78.03 140.80 77.95 132.20 78.04 C 132.24 108.73 132.30 139.42 132.17 170.10 C 172.18 170.43 212.22 170.16 252.24 170.24 C 252.25 139.49 252.25 108.75 252.24 78.00 C 243.66 78.00 235.09 78.00 226.51 78.00 C 226.51 56.26 226.48 34.51 226.52 12.77 C 274.84 12.76 323.16 12.76 371.48 12.77 C 371.51 34.51 371.49 56.26 371.49 78.00 C 362.33 78.00 353.16 78.00 344.00 78.00 C 344.00 108.75 344.00 139.49 344.00 170.24 C 388.15 170.23 432.29 170.28 476.44 170.21 C 476.57 191.97 476.47 213.73 476.49 235.48 C 467.36 235.46 458.24 235.60 449.12 235.41 C 448.84 286.10 449.08 336.80 449.00 387.50 C 458.17 387.53 467.34 387.45 476.51 387.54 C 476.48 409.19 476.51 430.83 476.49 452.48 C 428.16 452.50 379.84 452.51 331.51 452.48 C 331.48 430.84 331.54 409.20 331.48 387.55 C 340.07 387.42 348.65 387.55 357.24 387.49 C 357.25 373.32 357.25 359.16 357.24 345.00 C 317.83 345.00 278.41 345.00 239.00 345.00 C 239.07 359.19 238.86 373.39 239.11 387.59 C 247.67 387.46 256.25 387.42 264.81 387.60 C 264.72 409.20 264.71 430.79 264.82 452.39 C 216.39 452.64 167.95 452.43 119.52 452.49 C 119.46 430.85 119.55 409.21 119.47 387.56 C 128.73 387.41 137.98 387.55 147.24 387.49 C 147.28 354.86 147.19 322.22 147.29 289.58 C 127.19 289.38 107.08 289.54 86.98 289.51 C 85.44 289.79 84.40 288.49 83.32 287.67 C 69.11 275.39 54.91 263.09 40.60 250.92 C 40.43 193.32 40.46 135.70 40.59 78.10 C 31.32 77.87 22.04 78.06 12.77 78.00 C 12.76 56.26 12.76 34.52 12.77 12.78 Z" />
<path fill="#e61d3b" d=" M 25.00 25.00 C 65.26 25.02 105.52 24.97 145.78 25.02 C 145.73 38.60 145.78 52.18 145.75 65.76 C 137.17 65.77 128.58 65.75 120.00 65.77 C 120.00 122.26 120.00 178.75 120.00 235.23 C 129.13 235.21 138.26 235.31 147.39 235.17 C 147.64 249.19 147.44 263.22 147.49 277.24 C 128.34 277.25 109.19 277.26 90.04 277.23 C 77.60 266.53 65.17 255.81 52.73 245.11 C 52.82 185.36 52.67 125.62 52.80 65.87 C 43.55 65.64 34.29 65.80 25.03 65.79 C 24.96 52.19 25.02 38.60 25.00 25.00 Z" />
<path fill="#e61d3b" d=" M 238.76 25.00 C 278.92 25.00 319.08 25.00 359.24 25.00 C 359.24 38.59 359.27 52.18 359.22 65.76 C 350.07 65.76 340.92 65.75 331.77 65.77 C 331.78 125.44 331.70 185.11 331.81 244.78 C 320.56 255.21 308.87 265.17 297.50 275.47 C 296.50 276.31 295.45 277.46 294.00 277.24 C 275.59 277.26 257.17 277.25 238.76 277.24 C 238.76 263.24 238.72 249.23 238.78 235.23 C 247.31 235.28 255.85 235.17 264.38 235.29 C 264.66 187.19 264.42 139.08 264.50 90.98 C 264.38 82.55 264.73 74.11 264.33 65.68 C 255.84 65.89 247.36 65.65 238.87 65.82 C 238.60 52.22 238.83 38.61 238.76 25.00 Z" />
<path fill="#fffcfc" d=" M 0.00 91.00 C 9.19 91.04 18.37 90.92 27.56 91.07 C 27.43 145.73 27.52 200.39 27.51 255.05 C 27.23 256.60 28.57 257.50 29.53 258.42 C 46.05 272.54 62.48 286.76 78.95 300.93 C 80.05 302.02 81.53 302.40 83.04 302.27 C 100.08 302.18 117.12 302.32 134.16 302.19 C 134.33 326.29 134.20 350.39 134.22 374.49 C 125.03 374.61 115.83 374.29 106.65 374.65 C 106.90 404.76 106.68 434.88 106.76 465.00 L 0.00 465.00 L 0.00 91.00 Z" />
<path fill="#e61d3b" d=" M 343.70 182.61 C 379.11 182.34 414.52 182.57 449.93 182.50 C 454.72 182.58 459.52 182.31 464.31 182.65 C 464.16 196.18 464.30 209.71 464.24 223.24 C 455.13 223.21 446.02 223.33 436.92 223.18 C 436.61 282.04 436.75 340.92 436.85 399.79 C 445.98 399.71 455.11 399.77 464.24 399.76 C 464.25 413.25 464.25 426.75 464.24 440.24 C 424.08 440.25 383.92 440.25 343.76 440.24 C 343.75 426.75 343.75 413.25 343.76 399.76 C 352.37 399.65 360.99 399.95 369.59 399.60 C 369.37 377.33 369.57 355.05 369.49 332.77 C 321.91 332.76 274.34 332.76 226.77 332.77 C 226.77 355.10 226.73 377.43 226.79 399.76 C 235.31 399.71 243.83 399.84 252.35 399.68 C 252.63 413.21 252.57 426.76 252.38 440.29 C 212.25 440.18 172.13 440.28 132.00 440.24 C 132.00 426.75 132.00 413.25 132.00 399.76 C 141.20 399.63 150.42 399.99 159.61 399.57 C 159.25 340.77 159.77 281.95 159.34 223.16 C 150.23 223.35 141.11 223.20 132.00 223.24 C 132.00 209.66 132.00 196.08 132.00 182.50 C 172.17 182.50 212.33 182.48 252.50 182.52 C 252.49 196.09 252.53 209.67 252.48 223.25 C 243.95 223.21 235.41 223.31 226.88 223.19 C 226.61 245.20 226.83 267.22 226.77 289.23 C 274.34 289.24 321.92 289.25 369.49 289.23 C 369.59 267.30 369.32 245.37 369.62 223.45 C 361.02 222.97 352.38 223.39 343.76 223.23 C 343.71 209.69 343.82 196.15 343.70 182.61 Z" />
<path fill="#e61d3b" d=" M 316.69 275.98 C 329.82 264.27 342.91 252.50 356.23 241.00 C 356.27 252.67 356.24 264.33 356.24 276.00 C 343.06 275.99 329.87 276.02 316.69 275.98 Z" />
<path fill="#fffcfc" d=" M 252.00 358.00 C 282.74 358.00 313.49 358.00 344.23 358.00 C 344.25 363.48 344.21 368.96 344.26 374.44 C 335.68 374.58 327.09 374.44 318.51 374.51 C 318.56 404.67 318.36 434.84 318.60 465.00 L 277.77 465.00 C 277.84 434.88 277.61 404.75 277.88 374.64 C 269.28 374.35 260.67 374.52 252.06 374.55 C 251.95 369.03 252.01 363.52 252.00 358.00 Z" />
<path fill="#e61d3b" d=" M 505.99 445.00 C 511.66 445.00 517.33 445.00 523.00 445.00 C 522.99 446.58 522.99 448.16 522.99 449.76 C 521.06 449.76 519.15 449.79 517.23 449.80 C 517.25 454.87 517.24 459.93 517.24 465.00 L 511.76 465.00 C 511.76 459.93 511.74 454.87 511.78 449.81 C 509.86 449.79 507.94 449.76 506.03 449.76 C 506.01 448.17 505.99 446.58 505.99 445.00 Z" />
<path fill="#e61d3b" d=" M 526.00 445.00 C 528.97 445.00 531.95 445.00 534.93 444.99 C 536.27 448.05 537.49 451.16 538.71 454.28 C 540.63 451.41 541.71 448.12 543.08 444.99 C 545.97 445.00 548.86 444.99 551.76 445.00 C 551.77 451.67 551.76 458.33 551.76 465.00 L 546.24 465.00 C 546.20 459.93 546.35 454.85 546.10 449.79 C 543.96 453.29 542.56 457.15 540.84 460.85 C 539.42 460.76 538.02 460.67 536.62 460.58 C 535.06 456.66 533.47 452.74 531.33 449.10 C 531.15 454.40 531.28 459.70 531.24 465.00 L 526.00 465.00 C 526.00 458.33 526.00 451.67 526.00 445.00 Z" />
<path fill="#fffcfc" d=" M 531.33 449.10 C 533.47 452.74 535.06 456.66 536.62 460.58 C 538.02 460.67 539.42 460.76 540.84 460.85 C 542.56 457.15 543.96 453.29 546.10 449.79 C 546.35 454.85 546.20 459.93 546.24 465.00 L 531.24 465.00 C 531.28 459.70 531.15 454.40 531.33 449.10 Z" />
</svg>
